<svg width="113" height="59" viewBox="0 0 113 59" fill="none" xmlns="http://www.w3.org/2000/svg">
<path d="M17.8409 6.48499e-05L29.7727 41.0228H30.2272L42.159 6.48499e-05H59.9999L40.7954 58.1819H19.2045L-5.54323e-05 6.48499e-05H17.8409ZM64.0036 58.1819V6.48499e-05H89.1173C93.4355 6.48499e-05 97.2139 0.78605 100.453 2.35802C103.691 3.92999 106.21 6.19325 108.009 9.14779C109.809 12.1023 110.708 15.644 110.708 19.7728C110.708 23.9395 109.78 27.4527 107.924 30.3126C106.087 33.1724 103.502 35.3315 100.168 36.7898C96.854 38.2482 92.9809 38.9773 88.5491 38.9773H73.5491V26.7046H85.3673C87.2233 26.7046 88.8048 26.4773 90.1116 26.0228C91.4374 25.5493 92.4506 24.8012 93.1514 23.7785C93.8711 22.7557 94.2309 21.4205 94.2309 19.7728C94.2309 18.1061 93.8711 16.752 93.1514 15.7103C92.4506 14.6497 91.4374 13.8732 90.1116 13.3807C88.8048 12.8694 87.2233 12.6137 85.3673 12.6137H79.7991V58.1819H64.0036ZM98.0945 31.4773L112.64 58.1819H95.4809L81.2764 31.4773H98.0945Z" fill="#ECECEC"/>
</svg>
